#!OML:ASF H:\Dans Jumps\Project 1\Capture day 1\Session 1\subject.ASF
:FULLY-SPECIFIED
:DEGREES
236
root 0.183115 12.6865 -17.2896 24.4501 -1.43545 -0.933946
lowerback 35.1471 1.01314 -1.03044
upperback 13.1292 1.04747 2.42597
thorax -3.37309 0.358725 2.73144
lowerneck -17.0769 0.775346 -0.55139
upperneck 1.43497 1.37707 -3.36683
head 3.53779 0.513192 -0.915987
rclavicle 8.94531e-015 -2.08724e-015
rhumerus -31.5865 0.733357 -81.8894
rradius 37.9676
rwrist 15.189
rhand -19.4046 -21.4217
rfingers 7.12502
rthumb 6.91461 -51.2888
lclavicle 8.94531e-015 -2.08724e-015
lhumerus -31.727 -13.2627 92.8991
lradius 31.466
lwrist 36.029
lhand -30.5028 -7.99766
lfingers 7.12502
lthumb -3.80305 21.9482
rfemur -91.1564 -4.08647 21.3193
rtibia 95.2466
rfoot -27.2381 -4.74554
rtoes -0.995906
lfemur -90.5793 7.56606 -24.9211
ltibia 94.7386
lfoot -25.4634 11.4128
ltoes -2.55669
237
root 0.181347 12.6672 -17.2928 24.4584 -1.42543 -0.933142
lowerback 35.2906 1.0269 -1.04478
upperback 13.1154 1.05989 2.43388
thorax -3.43855 0.364125 2.74201
lowerneck -17.121 0.774407 -0.556621
upperneck 1.36239 1.37598 -3.37632
head 3.52037 0.512825 -0.918036
rclavicle 5.56597e-015 1.42131e-014
rhumerus -31.6908 0.670138 -81.7963
rradius 37.9681
rwrist 15.0606
rhand -19.0707 -21.7317
rfingers 7.12502
rthumb 7.23688 -51.5879
lclavicle 5.56597e-015 1.42131e-014
lhumerus -31.7949 -13.1856 92.8354
lradius 31.163
lwrist 35.5189
lhand -30.639 -8.1073
lfingers 7.12502
lthumb -3.93454 21.8361
rfemur -91.3124 -4.09635 21.3393
rtibia 95.4309
rfoot -27.2751 -4.75956
rtoes -0.980806
lfemur -90.7371 7.57899 -24.9362
ltibia 94.9213
lfoot -25.5058 11.4082
ltoes -2.56113
238
root 0.179823 12.6486 -17.2956 24.4535 -1.41953 -0.940789
lowerback 35.4435 1.04086 -1.0489
upperback 13.1038 1.0753 2.43952
thorax -3.50468 0.371241 2.74372
lowerneck -17.1648 0.772384 -0.560803
upperneck 1.29144 1.37285 -3.37948
head 3.50337 0.511744 -0.918318
rclavicle 1.98785e-015 6.4605e-015
rhumerus -31.7997 0.603819 -81.7079
rradius 37.9552
rwrist 14.9411
rhand -18.7718 -22.0237
rfingers 7.12502
rthumb 7.5254 -51.8699
lclavicle 1.98785e-015 6.4605e-015
lhumerus -31.8714 -13.1093 92.7734
lradius 30.8757
lwrist 35.1283
lhand -30.7624 -8.16761
lfingers 7.12502
lthumb -4.05374 21.7736
rfemur -91.4453 -4.09749 21.3621
rtibia 95.6088
rfoot -27.3141 -4.77704
rtoes -0.972731
lfemur -90.8765 7.60474 -24.9468
ltibia 95.1019
lfoot -25.5533 11.4015
ltoes -2.56101
239
root 0.178574 12.6306 -17.2977 24.4326 -1.41311 -0.958367
lowerback 35.6074 1.05173 -1.04056
upperback 13.0955 1.0906 2.44479
thorax -3.57045 0.378562 2.73842
lowerneck -17.2075 0.770218 -0.566604
upperneck 1.21816 1.36932 -3.37574
head 3.48523 0.510838 -0.916003
rclavicle -8.34896e-015 5.66536e-015
rhumerus -31.9141 0.538076 -81.6226
rradius 37.9142
rwrist 14.8671
rhand -18.5526 -22.2614
rfingers 7.12502
rthumb 7.73702 -52.0998
lclavicle -8.34896e-015 5.66536e-015
lhumerus -31.9576 -13.036 92.711
lradius 30.5993
lwrist 34.8565
lhand -30.8878 -8.21379
lfingers 7.12502
lthumb -4.1748 21.725
rfemur -91.5506 -4.09368 21.3913
rtibia 95.7808
rfoot -27.3582 -4.79839
rtoes -0.974182
lfemur -90.9939 7.64026 -24.9497
ltibia 95.2806
lfoot -25.6053 11.3952
ltoes -2.567
240
root 0.17753 12.6132 -17.2995 24.402 -1.41197 -0.979635
lowerback 35.7754 1.0634 -1.03031
upperback 13.0913 1.10719 2.44861
thorax -3.63294 0.386453 2.73013
lowerneck -17.2558 0.768694 -0.570424
upperneck 1.14342 1.36607 -3.36859
head 3.46761 0.510236 -0.912874
rclavicle 9.93923e-016 1.38155e-014
rhumerus -32.027 0.470733 -81.5385
rradius 37.8352
rwrist 14.8531
rhand -18.4256 -22.4284
rfingers 7.12502
rthumb 7.85961 -52.2623
lclavicle 9.93923e-016 1.38155e-014
lhumerus -32.0508 -12.9624 92.6457
lradius 30.3396
lwrist 34.6795
lhand -30.9217 -8.16139
lfingers 7.12502
lthumb -4.20756 21.7768
rfemur -91.6397 -4.08371 21.42
rtibia 95.9482
rfoot -27.4039 -4.82093
rtoes -0.979928
lfemur -91.0968 7.68376 -24.9514
ltibia 95.4575
lfoot -25.6595 11.3908
ltoes -2.57677
241
root 0.176529 12.596 -17.3012 24.368 -1.40798 -1.00385
lowerback 35.9424 1.07222 -1.01586
upperback 13.0888 1.12168 2.45276
thorax -3.69271 0.393398 2.72067
lowerneck -17.3062 0.768346 -0.572083
upperneck 1.06643 1.36382 -3.35993
head 3.44961 0.510244 -0.909539
rclavicle 3.37934e-015 -7.65321e-015
rhumerus -32.1403 0.400265 -81.4548
rradius 37.7142
rwrist 14.908
rhand -18.4071 -22.5059
rfingers 7.12502
rthumb 7.87743 -52.3391
lclavicle 3.37934e-015 -7.65321e-015
lhumerus -32.1511 -12.8749 92.5769
lradius 30.0966
lwrist 34.5663
lhand -30.8669 -8.02038
lfingers 7.12502
lthumb -4.15461 21.9189
rfemur -91.7222 -4.07339 21.4516
rtibia 96.1126
rfoot -27.4486 -4.84761
rtoes -0.996561
lfemur -91.1945 7.72673 -24.9491
ltibia 95.6327
lfoot -25.713 11.3876
ltoes -2.59423
242
root 0.175643 12.5785 -17.303 24.3426 -1.40845 -1.02535
lowerback 36.0993 1.0822 -1.00604
upperback 13.0842 1.13615 2.45643
thorax -3.7512 0.400231 2.71321
lowerneck -17.3615 0.767987 -0.574407
upperneck 0.990866 1.36185 -3.35153
head 3.43306 0.510302 -0.906164
rclavicle 1.39149e-015 -2.68359e-015
rhumerus -32.2554 0.32168 -81.3671
rradius 37.5699
rwrist 14.986
rhand -18.437 -22.5282
rfingers 7.12502
rthumb 7.84854 -52.3625
lclavicle 1.39149e-015 -2.68359e-015
lhumerus -32.2528 -12.7655 92.5095
lradius 29.8457
lwrist 34.4704
lhand -30.8331 -7.92685
lfingers 7.12502
lthumb -4.12198 22.013
rfemur -91.8185 -4.06204 21.4799
rtibia 96.277
rfoot -27.4882 -4.87213
rtoes -1.01802
lfemur -91.3026 7.76398 -24.9486
ltibia 95.8083
lfoot -25.7607 11.3926
ltoes -2.61795
243
root 0.174709 12.5609 -17.3049 24.3231 -1.4083 -1.04434
lowerback 36.249 1.0918 -0.999751
upperback 13.0766 1.14927 2.46122
thorax -3.81038 0.406336 2.70925
lowerneck -17.4175 0.768831 -0.576499
upperneck 0.917067 1.36164 -3.34489
head 3.41731 0.511118 -0.903289
rclavicle 3.57812e-015 3.67752e-015
rhumerus -32.3759 0.238869 -81.2763
rradius 37.4252
rwrist 15.0542
rhand -18.4511 -22.5463
rfingers 7.12502
rthumb 7.83492 -52.3812
lclavicle 3.57812e-015 3.67752e-015
lhumerus -32.365 -12.6488 92.4514
lradius 29.5969
lwrist 34.3815
lhand -30.8006 -7.85503
lfingers 7.12502
lthumb -4.09059 22.0854
rfemur -91.9241 -4.05256 21.5071
rtibia 96.4418
rfoot -27.5252 -4.89297
rtoes -1.03222
lfemur -91.4183 7.79262 -24.9465
ltibia 95.9841
lfoot -25.8052 11.4024
ltoes -2.64341
244
root 0.173835 12.5431 -17.3068 24.3106 -1.41227 -1.06257
lowerback 36.3921 1.10301 -0.99559
upperback 13.0648 1.16368 2.46538
thorax -3.87177 0.413072 2.70532
lowerneck -17.4767 0.769361 -0.577963
upperneck 0.847471 1.3612 -3.34036
head 3.40371 0.511627 -0.901285
rclavicle -3.97569e-015 -1.77912e-014
rhumerus -32.5045 0.142981 -81.1825
rradius 37.2829
rwrist 15.115
rhand -18.4627 -22.5552
rfingers 7.12502
rthumb 7.8238 -52.3904
lclavicle -3.97569e-015 -1.77912e-014
lhumerus -32.484 -12.514 92.3968
lradius 29.3491
lwrist 34.2839
lhand -30.781 -7.80601
lfingers 7.12502
lthumb -4.07161 22.1348
rfemur -92.0393 -4.04161 21.5334
rtibia 96.6062
rfoot -27.5603 -4.91185
rtoes -1.04512
lfemur -91.5421 7.81783 -24.944
ltibia 96.1606
lfoot -25.8483 11.415
ltoes -2.65961
245
root 0.172945 12.5254 -17.3086 24.2988 -1.41802 -1.0784
lowerback 36.6328 1.1148 -0.990083
upperback 12.9508 1.1787 2.46403
thorax -3.93882 0.419493 2.70258
lowerneck -17.5323 0.769739 -0.58414
upperneck 0.779576 1.36142 -3.33393
head 3.38996 0.512531 -0.897741
rclavicle -1.2921e-014 -1.61016e-014
rhumerus -32.6467 0.0424793 -81.0867
rradius 37.1475
rwrist 15.1856
rhand -18.4695 -22.5556
rfingers 7.12502
rthumb 7.81721 -52.3911
lclavicle -1.2921e-014 -1.61016e-014
lhumerus -32.6137 -12.366 92.3473
lradius 29.1012
lwrist 34.1696
lhand -30.7868 -7.79439
lfingers 7.12502
lthumb -4.07729 22.1463
rfemur -92.1558 -4.03205 21.558
rtibia 96.771
rfoot -27.596 -4.92802
rtoes -1.04582
lfemur -91.6651 7.84041 -24.9425
ltibia 96.3375
lfoot -25.8908 11.4333
ltoes -2.67732
246
root 0.17188 12.5079 -17.3104 24.283 -1.42506 -1.09455
lowerback 36.7834 1.12801 -0.989711
upperback 12.9308 1.19436 2.46795
thorax -4.01218 0.426861 2.69977
lowerneck -17.5927 0.76857 -0.590544
upperneck 0.718581 1.35991 -3.32741
head 3.37957 0.512425 -0.894309
rclavicle 7.95139e-016 1.95803e-014
rhumerus -32.7993 -0.0670622 -80.9888
rradius 37.0186
rwrist 15.2631
rhand -18.4731 -22.5496
rfingers 7.12502
rthumb 7.8137 -52.3853
lclavicle 7.95139e-016 1.95803e-014
lhumerus -32.7512 -12.2177 92.3001
lradius 28.8615
lwrist 34.0469
lhand -30.7545 -7.7452
lfingers 7.12502
lthumb -4.04607 22.1961
rfemur -92.2665 -4.02113 21.5839
rtibia 96.9344
rfoot -27.6327 -4.94106
rtoes -1.03087
lfemur -91.7817 7.865 -24.939
ltibia 96.5127
lfoot -25.9347 11.4523
ltoes -2.69709
247
root 0.17084 12.4907 -17.3119 24.2577 -1.43399 -1.11491
lowerback 36.9459 1.14131 -0.985781
upperback 12.9068 1.21129 2.47213
thorax -4.09368 0.434927 2.69479
lowerneck -17.6509 0.76582 -0.604321
upperneck 0.661425 1.3576 -3.31553
head 3.36993 0.512089 -0.887826
rclavicle 3.77691e-015 -5.26779e-015
rhumerus -32.9644 -0.185872 -80.8874
rradius 36.8944
rwrist 15.3588
rhand -18.4741 -22.5295
rfingers 7.12502
rthumb 7.81275 -52.3651
lclavicle 3.77691e-015 -5.26779e-015
lhumerus -32.9058 -12.0741 92.2592
lradius 28.6326
lwrist 33.9104
lhand -30.7447 -7.71506
lfingers 7.12502
lthumb -4.03658 22.2265
rfemur -92.3626 -4.00913 21.6149
rtibia 97.0954
rfoot -27.6721 -4.9544
rtoes -1.0128
lfemur -91.8846 7.89491 -24.9303
ltibia 96.687
lfoot -25.9802 11.4735
ltoes -2.72096
